<?xml version="1.0" encoding="utf-8"?>
<!-- Generator: Adobe Illustrator 23.0.1, SVG Export Plug-In . SVG Version: 6.00 Build 0)  -->
<svg version="1.1" id="Layer_1" xmlns="http://www.w3.org/2000/svg" xmlns:xlink="http://www.w3.org/1999/xlink" x="0px" y="0px"
	 viewBox="0 0 250 1400" style="enable-background:new 0 0 250 1400;" xml:space="preserve">
<style type="text/css">
	.st0{fill:#D58C95;}
	.st1{fill:#FFFFFF;}
</style>
<rect class="st0" width="190" height="1400"/>
<path id="wono2" class="st0" d="M189,0h30.3c0,0,33.9,3.5,19.3,14.8C223.9,26,189,30.3,189,30.3V0z"/>
<path id="wono_1_" class="st1" d="M219,54.2l-30.2-1.6c0,0-33.7-5-18.5-14.9c15.2-9.9,50.2-12.1,50.2-12.1L219,54.2z"/>
<path id="wono2_1_" class="st0" d="M183.2,52.1l38,1.6c0,0,42.4,6,23.5,19s-63,16.5-63,16.5L183.2,52.1z"/>
<path id="wono_2_" class="st1" d="M222.9,120.1l-28.2-11.1c0,0-30.3-15.5-12.8-20s51.5,4.6,51.5,4.6L222.9,120.1z"/>
<path id="wono2_2_" class="st0" d="M184.8,103l28.6,9.7c0,0,30.8,14.3,13.1,21.1c-17.7,6.8-52.1,0-52.1,0L184.8,103z"/>
<path id="wono_5_" class="st1" d="M210.4,161.5l-27.8-7.2c0,0-30.5-10.8-14.7-16.3s48.7-0.7,48.7-0.7L210.4,161.5z"/>
<path id="wono2_5_" class="st0" d="M186.2,155.7l30.3,0.3c0,0,33.9,4.4,19.1,17.7c-14.8,13.2-49.7,18-49.7,18L186.2,155.7z"/>
<path id="wono_4_" class="st1" d="M216.1,215.7l-30.2-1.6c0,0-33.7-5-18.5-14.9c15.2-9.9,50.2-12.1,50.2-12.1L216.1,215.7z"/>
<path id="wono2_4_" class="st0" d="M180.2,213.7l38,1.6c0,0,42.4,6,23.5,19s-63,16.5-63,16.5L180.2,213.7z"/>
<path id="wono_3_" class="st1" d="M220,281.6l-28.2-11.1c0,0-30.3-15.5-12.8-20c17.5-4.5,51.5,4.6,51.5,4.6L220,281.6z"/>
<path id="wono2_3_" class="st0" d="M181.9,264.5l28.6,9.7c0,0,31,14,13.7,19.5s-51.6-1.6-51.6-1.6L181.9,264.5z"/>
<path id="wono_10_" class="st1" d="M211.7,1158.4l-30.2-1.6c0,0-33.7-5-18.5-14.9c15.2-9.9,50.2-12.1,50.2-12.1L211.7,1158.4z"/>
<path id="wono2_10_" class="st0" d="M175.8,1156.3l38,1.6c0,0,42.4,6,23.5,19c-19,13.1-63,16.5-63,16.5L175.8,1156.3z"/>
<path id="wono_9_" class="st1" d="M215.6,1224.2l-28.2-11.1c0,0-30.3-15.5-12.8-20c17.5-4.5,51.5,4.6,51.5,4.6L215.6,1224.2z"/>
<path id="wono2_9_" class="st0" d="M177.5,1207.1l28.6,9.7c0,0,30.8,14.3,13.1,21.1c-17.7,6.8-52.1,0-52.1,0L177.5,1207.1z"/>
<path id="wono_8_" class="st1" d="M203.1,1265.7l-27.8-7.2c0,0-30.5-10.8-14.7-16.3c15.8-5.5,48.7-0.7,48.7-0.7L203.1,1265.7z"/>
<path id="wono2_8_" class="st0" d="M178.8,1259.8l30.3,0.3c0,0,33.9,4.4,19.1,17.7c-14.8,13.2-49.7,18-49.7,18L178.8,1259.8z"/>
<path id="wono_7_" class="st1" d="M208.7,1319.9l-30.2-1.6c0,0-33.7-5-18.5-14.9c15.2-9.9,50.2-12.1,50.2-12.1L208.7,1319.9z"/>
<path id="wono2_7_" class="st0" d="M172.8,1317.9l38,1.6c0,0,42.4,6,23.5,19s-63,16.5-63,16.5L172.8,1317.9z"/>
<path id="wono_6_" class="st1" d="M212.6,1385.8l-28.2-11.1c0,0-30.3-15.5-12.8-20c17.5-4.5,51.5,4.6,51.5,4.6L212.6,1385.8z"/>
<path id="wono2_6_" class="st0" d="M174.5,1368.7l28.6,9.7c0,0,31,14,13.7,19.6s-51.6-1.6-51.6-1.6L174.5,1368.7z"/>
</svg>
